<svg xmlns="http://www.w3.org/2000/svg" xmlns:xlink="http://www.w3.org/1999/xlink" width="1500" zoomAndPan="magnify" viewBox="0 0 1125 374.999991" height="500" preserveAspectRatio="xMidYMid meet" version="1.0"><defs><g/><clipPath id="ae9262ad86"><path d="M 425.542969 124 L 538.792969 124 L 538.792969 261.765625 L 425.542969 261.765625 Z M 425.542969 124 " clip-rule="nonzero"/></clipPath></defs><path fill="#3b3b3b" d="M 477.363281 216.445312 C 477.363281 216.445312 478.355469 219.761719 479.851562 219.582031 C 481.34375 219.40625 480.835938 216.757812 478.007812 214.847656 C 474.765625 212.65625 474.0625 216.425781 474.0625 216.425781 C 476.164062 215.289062 477.363281 216.445312 477.363281 216.445312 Z M 477.363281 216.445312 " fill-opacity="1" fill-rule="nonzero"/><path fill="#3b3b3b" d="M 493.796875 223.359375 C 494.933594 224.410156 494.761719 225.726562 494.761719 225.726562 C 487.660156 233.976562 475.785156 232.570312 475.785156 232.570312 C 485.582031 239.410156 496.605469 228.535156 496.605469 228.535156 C 498.363281 228.976562 499.152344 232.042969 499.152344 232.042969 C 501.605469 224.320312 493.796875 223.359375 493.796875 223.359375 Z M 493.796875 223.359375 " fill-opacity="1" fill-rule="nonzero"/><g clip-path="url(#ae9262ad86)"><path fill="#3b3b3b" d="M 535.324219 187.019531 C 535.300781 187.007812 535.28125 186.996094 535.257812 186.984375 C 535.691406 180.644531 535.550781 163.480469 522.632812 155.578125 C 521.078125 151.636719 518.496094 148.070312 514.316406 145.714844 C 514.273438 145.6875 514.222656 145.664062 514.179688 145.640625 C 516.886719 144.972656 519.925781 144.660156 519.925781 144.660156 C 512.371094 135.714844 500.636719 137.292969 500.636719 137.292969 C 506.605469 133.261719 514.675781 134.136719 514.675781 134.136719 C 497.828125 123.78125 484.144531 133.082031 484.144531 133.082031 C 485.375 128.347656 490.636719 124.820312 490.636719 124.820312 C 450.457031 125.152344 441.441406 155.558594 441.441406 155.558594 C 441.441406 155.566406 441.4375 155.570312 441.4375 155.585938 C 428.519531 163.480469 428.378906 180.644531 428.8125 186.988281 C 428.789062 187.003906 428.769531 187.015625 428.746094 187.027344 C 427.183594 187.949219 425.726562 189.785156 425.691406 191.605469 C 425.542969 198.878906 425.757812 211.976562 426.003906 213.433594 C 426.382812 215.683594 436.503906 221.082031 436.503906 221.082031 C 436.503906 221.082031 438.984375 225.398438 441.273438 225.410156 C 445.457031 225.425781 445.734375 221.785156 445.734375 221.785156 C 445.734375 221.785156 450.804688 219.765625 446.515625 228.015625 C 442.21875 236.265625 445.195312 245.390625 445.195312 245.390625 C 445.195312 241.179688 448.175781 237.140625 448.175781 237.140625 C 448.175781 237.140625 449.40625 244.6875 455.097656 252.054688 C 460.789062 259.421875 482.035156 261.882812 482.035156 261.882812 C 482.035156 261.882812 503.28125 259.429688 508.972656 252.054688 C 514.664062 244.6875 515.894531 237.140625 515.894531 237.140625 C 515.894531 237.140625 518.875 241.171875 518.875 245.390625 C 518.875 245.390625 521.847656 236.265625 517.554688 228.015625 C 513.257812 219.765625 518.335938 221.785156 518.335938 221.785156 C 518.335938 221.785156 518.613281 225.425781 522.796875 225.410156 C 525.085938 225.398438 527.566406 221.082031 527.566406 221.082031 C 527.566406 221.082031 537.6875 215.683594 538.066406 213.433594 C 538.308594 211.976562 538.523438 198.878906 538.378906 191.605469 C 538.339844 189.785156 536.890625 187.945312 535.324219 187.019531 Z M 461.148438 166.949219 C 471.667969 164.140625 482.035156 177.652344 482.035156 177.652344 C 482.035156 177.652344 492.402344 164.140625 502.921875 166.949219 C 511.410156 169.210938 513.160156 177.707031 513.519531 180.894531 L 487.660156 180.894531 C 486.359375 180.894531 485.15625 181.539062 484.433594 182.621094 C 484.164062 183.023438 483.71875 183.261719 483.234375 183.261719 L 480.839844 183.261719 C 480.359375 183.261719 479.910156 183.023438 479.640625 182.621094 C 478.917969 181.539062 477.714844 180.894531 476.417969 180.894531 L 450.550781 180.894531 C 450.910156 177.699219 452.660156 169.210938 461.148438 166.949219 Z M 434.839844 183.789062 C 434.632812 183.851562 434.332031 183.980469 433.988281 184.136719 C 433.222656 171.476562 436.78125 164.640625 439.894531 161.140625 C 438.308594 170.128906 440.453125 179.054688 440.453125 179.054688 C 436.773438 179.230469 434.839844 183.789062 434.839844 183.789062 Z M 442.5625 217.65625 C 442.300781 219.234375 440.195312 218.578125 438.089844 215.8125 C 435.984375 213.046875 437.3125 190.019531 437.3125 190.019531 C 439.789062 194.492188 439.761719 195.019531 441.992188 194.941406 C 441.988281 194.941406 442.824219 216.078125 442.5625 217.65625 Z M 491.507812 247.835938 C 487.296875 246.785156 482.039062 240.113281 482.039062 240.113281 C 482.039062 240.113281 476.785156 246.785156 472.574219 247.835938 C 468.363281 248.890625 451.695312 235.554688 455.726562 227.660156 C 459.757812 219.765625 471.167969 210.8125 471.167969 210.8125 C 464.496094 213.792969 460.066406 210.636719 460.066406 210.636719 C 461.820312 210.636719 464.8125 209.289062 466.945312 208.199219 C 467.921875 208.175781 468.792969 208.140625 469.496094 208.085938 C 474.117188 207.761719 477.402344 200.332031 479.347656 194.15625 C 479.648438 193.203125 480.527344 192.566406 481.539062 192.566406 L 482.535156 192.566406 C 483.546875 192.566406 484.425781 193.207031 484.726562 194.164062 C 486.671875 200.335938 489.960938 207.773438 494.578125 208.089844 C 495.285156 208.140625 496.160156 208.175781 497.132812 208.199219 C 499.261719 209.285156 502.253906 210.636719 504.011719 210.636719 C 504.011719 210.636719 499.578125 213.792969 492.910156 210.8125 C 492.910156 210.8125 504.316406 219.761719 508.347656 227.660156 C 512.386719 235.550781 495.71875 248.890625 491.507812 247.835938 Z M 517.492188 199.445312 C 516.351562 203.175781 512.96875 205.714844 509.070312 205.765625 C 502.15625 205.851562 497.203125 205.808594 494.75 205.636719 C 492.332031 205.464844 489.390625 200.785156 487.070312 193.421875 C 486.445312 191.4375 484.625 190.109375 482.535156 190.109375 L 481.539062 190.109375 C 479.445312 190.109375 477.621094 191.445312 477.003906 193.421875 C 474.683594 200.789062 471.742188 205.472656 469.324219 205.636719 C 466.871094 205.808594 461.917969 205.851562 455.003906 205.765625 C 451.105469 205.714844 447.722656 203.175781 446.582031 199.445312 L 442.289062 185.367188 L 440.324219 185.367188 C 439.765625 185.367188 439.3125 184.914062 439.3125 184.359375 C 439.3125 183.800781 439.765625 183.347656 440.324219 183.347656 L 476.410156 183.347656 C 476.886719 183.347656 477.328125 183.585938 477.589844 183.980469 C 478.3125 185.070312 479.53125 185.71875 480.835938 185.71875 L 483.226562 185.71875 C 484.53125 185.71875 485.75 185.070312 486.472656 183.980469 C 486.734375 183.582031 487.175781 183.347656 487.652344 183.347656 L 523.738281 183.347656 C 524.296875 183.347656 524.75 183.800781 524.75 184.359375 C 524.75 184.914062 524.296875 185.367188 523.738281 185.367188 L 521.773438 185.367188 Z M 525.984375 215.8125 C 523.878906 218.578125 521.773438 219.234375 521.511719 217.65625 C 521.25 216.078125 522.085938 194.941406 522.085938 194.941406 C 524.320312 195.019531 524.285156 194.492188 526.769531 190.019531 C 526.761719 190.019531 528.089844 213.046875 525.984375 215.8125 Z M 530.078125 184.136719 C 529.742188 183.980469 529.441406 183.855469 529.230469 183.789062 C 529.230469 183.789062 527.300781 179.230469 523.609375 179.054688 C 523.609375 179.054688 525.757812 170.128906 524.167969 161.140625 C 527.289062 164.640625 530.839844 171.476562 530.078125 184.136719 Z M 530.078125 184.136719 " fill-opacity="1" fill-rule="nonzero"/></g><path fill="#3b3b3b" d="M 484.226562 219.582031 C 485.71875 219.761719 486.710938 216.445312 486.710938 216.445312 C 486.710938 216.445312 487.910156 215.289062 490.015625 216.425781 C 490.015625 216.425781 489.3125 212.65625 486.066406 214.847656 C 483.238281 216.757812 482.730469 219.410156 484.226562 219.582031 Z M 484.226562 219.582031 " fill-opacity="1" fill-rule="nonzero"/><path fill="#3b3b3b" d="M 473.214844 185.808594 L 468.914062 185.808594 L 463.351562 203.347656 C 465.152344 203.335938 466.644531 203.304688 467.789062 203.261719 C 468.851562 203.21875 469.84375 202.722656 470.472656 201.867188 C 471.601562 200.347656 473.148438 197.453125 474.648438 192.6875 C 474.941406 191.757812 475.386719 190.3125 475.707031 188.980469 C 476.09375 187.355469 474.878906 185.808594 473.214844 185.808594 Z M 473.214844 185.808594 " fill-opacity="1" fill-rule="nonzero"/><path fill="#3b3b3b" d="M 462.101562 185.808594 L 456.546875 203.328125 C 457.1875 203.335938 457.835938 203.34375 458.492188 203.347656 L 464.050781 185.808594 Z M 462.101562 185.808594 " fill-opacity="1" fill-rule="nonzero"/><path fill="#3b3b3b" d="M 450.875 185.808594 C 447.949219 185.808594 445.847656 188.636719 446.707031 191.4375 L 448.933594 198.734375 C 449.636719 201.035156 451.539062 202.710938 453.828125 203.175781 L 459.332031 185.816406 L 450.875 185.816406 Z M 450.875 185.808594 " fill-opacity="1" fill-rule="nonzero"/><path fill="#3b3b3b" d="M 507.242188 185.808594 L 501.679688 203.355469 C 502.0625 203.355469 502.429688 203.359375 502.839844 203.359375 C 503.105469 203.359375 503.367188 203.359375 503.628906 203.359375 L 509.191406 185.816406 L 507.242188 185.816406 Z M 507.242188 185.808594 " fill-opacity="1" fill-rule="nonzero"/><path fill="#3b3b3b" d="M 514.023438 185.90625 L 508.5 203.316406 C 508.679688 203.316406 508.863281 203.3125 509.039062 203.3125 C 511.855469 203.273438 514.316406 201.421875 515.140625 198.726562 L 517.371094 191.433594 C 518.132812 188.910156 516.5 186.382812 514.023438 185.90625 Z M 514.023438 185.90625 " fill-opacity="1" fill-rule="nonzero"/><path fill="#3b3b3b" d="M 490.851562 185.808594 C 489.1875 185.808594 487.976562 187.363281 488.355469 188.980469 C 488.667969 190.3125 489.121094 191.75 489.414062 192.6875 C 490.914062 197.460938 492.460938 200.355469 493.589844 201.867188 C 494.226562 202.722656 495.210938 203.21875 496.273438 203.261719 C 497.007812 203.292969 497.902344 203.3125 498.914062 203.328125 L 504.46875 185.808594 Z M 490.851562 185.808594 " fill-opacity="1" fill-rule="nonzero"/><g fill="#3b3b3b" fill-opacity="1"><g transform="translate(9.896071, 257.334857)"><g><path d="M 35.359375 1.359375 C 26.003906 0.796875 19.203125 -1.734375 14.953125 -6.234375 C 10.703125 -10.742188 8.46875 -17.757812 8.25 -27.28125 C 8.132812 -34.644531 8.046875 -41.65625 7.984375 -48.3125 C 7.929688 -54.976562 7.90625 -61.539062 7.90625 -68 C 7.90625 -74.457031 7.929688 -81.03125 7.984375 -87.71875 C 8.046875 -94.40625 8.132812 -101.429688 8.25 -108.796875 C 8.363281 -118.035156 10.597656 -124.9375 14.953125 -129.5 C 19.316406 -134.0625 26.117188 -136.65625 35.359375 -137.28125 L 35.359375 -120.703125 C 32.753906 -120.128906 30.84375 -118.992188 29.625 -117.296875 C 28.40625 -115.597656 27.765625 -113.050781 27.703125 -109.65625 C 27.535156 -102.0625 27.410156 -94.847656 27.328125 -88.015625 C 27.242188 -81.191406 27.203125 -74.503906 27.203125 -67.953125 C 27.203125 -61.410156 27.242188 -54.753906 27.328125 -47.984375 C 27.410156 -41.210938 27.535156 -34.03125 27.703125 -26.4375 C 27.765625 -23.03125 28.40625 -20.445312 29.625 -18.6875 C 30.84375 -16.9375 32.753906 -15.78125 35.359375 -15.21875 Z M 45.46875 1.28125 L 45.46875 -15.21875 C 48.132812 -15.84375 50.078125 -17.015625 51.296875 -18.734375 C 52.515625 -20.460938 53.179688 -23.03125 53.296875 -26.4375 C 53.410156 -28.925781 53.476562 -31.300781 53.5 -33.5625 C 53.53125 -35.832031 53.515625 -38.285156 53.453125 -40.921875 C 53.398438 -43.554688 53.316406 -46.578125 53.203125 -49.984375 L 72.671875 -49.984375 C 72.847656 -45.898438 72.945312 -41.957031 72.96875 -38.15625 C 73 -34.363281 72.929688 -30.738281 72.765625 -27.28125 C 72.472656 -17.820312 70.203125 -10.851562 65.953125 -6.375 C 61.703125 -1.894531 54.875 0.65625 45.46875 1.28125 Z M 52.4375 -86.875 C 52.550781 -89.476562 52.625 -92.023438 52.65625 -94.515625 C 52.6875 -97.015625 52.703125 -99.523438 52.703125 -102.046875 C 52.703125 -104.566406 52.671875 -107.101562 52.609375 -109.65625 C 52.554688 -112.882812 51.960938 -115.363281 50.828125 -117.09375 C 49.691406 -118.820312 47.90625 -119.992188 45.46875 -120.609375 L 45.46875 -137.1875 C 54.363281 -136.445312 60.953125 -133.769531 65.234375 -129.15625 C 69.515625 -124.539062 71.796875 -117.726562 72.078125 -108.71875 C 72.191406 -106.28125 72.25 -103.84375 72.25 -101.40625 C 72.25 -98.96875 72.21875 -96.546875 72.15625 -94.140625 C 72.101562 -91.734375 72.019531 -89.3125 71.90625 -86.875 Z M 52.4375 -86.875 "/></g></g></g><g fill="#3b3b3b" fill-opacity="1"><g transform="translate(98.632488, 257.334857)"><g><path d="M 54.0625 0 L 41.390625 -48.953125 L 39.09375 -48.953125 L 39.09375 -66.21875 L 40.890625 -66.21875 C 44.742188 -66.21875 47.53125 -66.984375 49.25 -68.515625 C 50.976562 -70.046875 51.898438 -72.394531 52.015625 -75.5625 C 52.191406 -79.53125 52.320312 -83.34375 52.40625 -87 C 52.488281 -90.65625 52.5 -94.304688 52.4375 -97.953125 C 52.382812 -101.609375 52.242188 -105.421875 52.015625 -109.390625 C 51.847656 -112.617188 50.914062 -114.984375 49.21875 -116.484375 C 47.519531 -117.992188 44.769531 -118.75 40.96875 -118.75 L 38.9375 -118.75 L 38.9375 -136 L 40.96875 -136 C 51.5625 -136 59.207031 -133.875 63.90625 -129.625 C 68.613281 -125.375 71.140625 -118.316406 71.484375 -108.453125 C 71.648438 -104.148438 71.75 -100.3125 71.78125 -96.9375 C 71.8125 -93.570312 71.8125 -90.269531 71.78125 -87.03125 C 71.75 -83.800781 71.648438 -80.289062 71.484375 -76.5 C 71.035156 -64.3125 67.015625 -56.320312 59.421875 -52.53125 L 74.296875 0 Z M 9.4375 0 L 9.4375 -136 L 28.90625 -136 L 28.90625 0 Z M 9.4375 0 "/></g></g></g><g fill="#3b3b3b" fill-opacity="1"><g transform="translate(187.453901, 257.334857)"><g><path d="M 25.5 0 L 25.5 -45.21875 L 21.9375 -45.21875 L 2.296875 -136 L 22.265625 -136 L 28.90625 -100.296875 L 32.984375 -60.859375 L 52.015625 -60.859375 L 48.359375 -45.21875 L 44.875 -45.21875 L 44.875 0 Z M 40.296875 -68 L 43.515625 -100.296875 L 50.0625 -136 L 70.046875 -136 L 54.40625 -68 Z M 40.296875 -68 "/></g></g></g><g fill="#3b3b3b" fill-opacity="1"><g transform="translate(269.135631, 257.334857)"><g><path d="M 9.4375 0 L 9.4375 -136 L 28.90625 -136 L 28.90625 0 Z M 39.015625 -48.1875 L 39.015625 -65.453125 L 40.453125 -65.453125 C 44.304688 -65.453125 47.097656 -66.21875 48.828125 -67.75 C 50.554688 -69.28125 51.507812 -71.628906 51.6875 -74.796875 C 51.851562 -78.367188 51.976562 -82.050781 52.0625 -85.84375 C 52.144531 -89.644531 52.144531 -93.515625 52.0625 -97.453125 C 51.976562 -101.390625 51.851562 -105.367188 51.6875 -109.390625 C 51.570312 -112.617188 50.632812 -114.984375 48.875 -116.484375 C 47.113281 -117.992188 44.335938 -118.75 40.546875 -118.75 L 39.015625 -118.75 L 39.015625 -136 L 40.546875 -136 C 51.140625 -136 58.800781 -133.875 63.53125 -129.625 C 68.269531 -125.375 70.804688 -118.316406 71.140625 -108.453125 C 71.367188 -102.273438 71.484375 -96.664062 71.484375 -91.625 C 71.484375 -86.582031 71.367188 -81.285156 71.140625 -75.734375 C 70.804688 -65.929688 68.257812 -58.890625 63.5 -54.609375 C 58.738281 -50.328125 51.054688 -48.1875 40.453125 -48.1875 Z M 39.015625 -48.1875 "/></g></g></g><g fill="#3b3b3b" fill-opacity="1"><g transform="translate(354.982176, 257.334857)"><g><path d="M 23.203125 0 L 23.203125 -111.78125 L 42.671875 -111.78125 L 42.671875 0 Z M 1.015625 -118.75 L 1.015625 -136 L 64.6875 -136 L 64.6875 -118.75 Z M 1.015625 -118.75 "/></g></g></g><g fill="#3b3b3b" fill-opacity="1"><g transform="translate(546.038592, 257.334857)"><g><path d="M 49.21875 -0.25 L 41.484375 -39.859375 L 33.75 -118.75 L 9.4375 -118.75 L 9.4375 -136 L 47.6875 -136 L 56.265625 -81.765625 L 60.34375 -17.515625 L 66.640625 -17.515625 L 70.546875 -81.6875 L 79.3125 -136 L 117.46875 -136 L 117.46875 -118.75 L 93.25 -118.75 L 85.59375 -40.375 L 77.265625 -0.25 Z M 9.4375 0 L 9.4375 -111.6875 L 27.109375 -111.6875 L 29.40625 -40.625 L 29.40625 0 Z M 97.40625 0 L 97.40625 -40.625 L 99.796875 -111.6875 L 117.46875 -111.6875 L 117.46875 0 Z M 97.40625 0 "/></g></g></g><g fill="#3b3b3b" fill-opacity="1"><g transform="translate(682.287866, 257.334857)"><g><path d="M 35.28125 1.28125 C 25.8125 0.65625 18.992188 -1.921875 14.828125 -6.453125 C 10.660156 -10.992188 8.46875 -18.109375 8.25 -27.796875 C 8.132812 -35.273438 8.046875 -42.3125 7.984375 -48.90625 C 7.929688 -55.507812 7.90625 -61.957031 7.90625 -68.25 C 7.90625 -74.539062 7.929688 -80.957031 7.984375 -87.5 C 8.046875 -94.050781 8.132812 -100.984375 8.25 -108.296875 C 8.46875 -117.921875 10.660156 -125 14.828125 -129.53125 C 18.992188 -134.070312 25.8125 -136.65625 35.28125 -137.28125 L 35.28125 -120.703125 C 32.726562 -120.128906 30.882812 -118.9375 29.75 -117.125 C 28.613281 -115.3125 28.019531 -112.675781 27.96875 -109.21875 C 27.6875 -101.851562 27.488281 -94.8125 27.375 -88.09375 C 27.257812 -81.382812 27.203125 -74.785156 27.203125 -68.296875 C 27.203125 -61.804688 27.257812 -55.175781 27.375 -48.40625 C 27.488281 -41.632812 27.6875 -34.453125 27.96875 -26.859375 C 28.019531 -23.347656 28.613281 -20.6875 29.75 -18.875 C 30.882812 -17.0625 32.726562 -15.867188 35.28125 -15.296875 Z M 45.46875 1.28125 L 45.46875 -15.296875 C 48.082031 -15.867188 49.925781 -17.0625 51 -18.875 C 52.070312 -20.6875 52.640625 -23.347656 52.703125 -26.859375 C 52.984375 -34.335938 53.191406 -41.445312 53.328125 -48.1875 C 53.472656 -54.9375 53.546875 -61.554688 53.546875 -68.046875 C 53.546875 -74.535156 53.472656 -81.148438 53.328125 -87.890625 C 53.191406 -94.628906 52.984375 -101.738281 52.703125 -109.21875 C 52.640625 -112.675781 52.070312 -115.3125 51 -117.125 C 49.925781 -118.9375 48.082031 -120.128906 45.46875 -120.703125 L 45.46875 -137.28125 C 54.59375 -136.59375 61.207031 -133.96875 65.3125 -129.40625 C 69.425781 -124.84375 71.625 -117.804688 71.90625 -108.296875 C 72.1875 -100.921875 72.367188 -93.960938 72.453125 -87.421875 C 72.546875 -80.878906 72.59375 -74.445312 72.59375 -68.125 C 72.59375 -61.8125 72.546875 -55.367188 72.453125 -48.796875 C 72.367188 -42.222656 72.1875 -35.222656 71.90625 -27.796875 C 71.625 -18.222656 69.425781 -11.164062 65.3125 -6.625 C 61.207031 -2.09375 54.59375 0.539062 45.46875 1.28125 Z M 45.46875 1.28125 "/></g></g></g><g fill="#3b3b3b" fill-opacity="1"><g transform="translate(772.129245, 257.334857)"><g><path d="M 49.640625 0 L 40.71875 -46.671875 L 32.125 -118.828125 L 9.4375 -118.828125 L 9.4375 -136 L 44.546875 -136 L 53.046875 -91.890625 L 63.328125 -17.34375 L 85.84375 -17.34375 L 85.84375 0 Z M 9.4375 0 L 9.4375 -111.265625 L 25.328125 -111.265625 L 27.375 -51.9375 L 28.8125 0 Z M 69.78125 -24.90625 L 67.65625 -82.703125 L 66.296875 -136 L 85.84375 -136 L 85.84375 -24.90625 Z M 69.78125 -24.90625 "/></g></g></g><g fill="#3b3b3b" fill-opacity="1"><g transform="translate(876.759937, 257.334857)"><g><path d="M 9.4375 0 L 9.4375 -68.34375 L 33.0625 -68.34375 L 43.265625 -104.96875 L 54.140625 -136 L 75.3125 -136 L 29.234375 -22.1875 L 29.234375 0 Z M 57.03125 0 L 45.5625 -39.53125 L 57.203125 -66.8125 L 76.921875 0 Z M 9.4375 -76.75 L 9.4375 -136 L 30 -136 L 29.921875 -105.140625 L 27.546875 -76.75 Z M 9.4375 -76.75 "/></g></g></g><g fill="#3b3b3b" fill-opacity="1"><g transform="translate(964.051412, 257.334857)"><g><path d="M 9.4375 0 L 9.4375 -136 L 28.90625 -136 L 28.90625 0 Z M 39.09375 0 L 39.09375 -17.25 L 63.0625 -17.25 L 63.0625 0 Z M 39.09375 -60.1875 L 39.09375 -77.4375 L 61.375 -77.4375 L 61.375 -60.1875 Z M 39.09375 -118.75 L 39.09375 -136 L 63.0625 -136 L 63.0625 -118.75 Z M 39.09375 -118.75 "/></g></g></g><g fill="#3b3b3b" fill-opacity="1"><g transform="translate(1041.228348, 257.334857)"><g><path d="M 25.5 0 L 25.5 -45.21875 L 21.9375 -45.21875 L 2.296875 -136 L 22.265625 -136 L 28.90625 -100.296875 L 32.984375 -60.859375 L 52.015625 -60.859375 L 48.359375 -45.21875 L 44.875 -45.21875 L 44.875 0 Z M 40.296875 -68 L 43.515625 -100.296875 L 50.0625 -136 L 70.046875 -136 L 54.40625 -68 Z M 40.296875 -68 "/></g></g></g></svg>