<svg xmlns="http://www.w3.org/2000/svg" xmlns:xlink="http://www.w3.org/1999/xlink" width="1500" zoomAndPan="magnify" viewBox="0 0 1125 374.999991" height="500" preserveAspectRatio="xMidYMid meet" version="1.0"><defs><g/></defs><g fill="#3b3b3b" fill-opacity="1"><g transform="translate(26.634213, 209.963278)"><g><path d="M 2.359375 -44.6875 L 2.359375 -48.90625 C 6.117188 -49.976562 9.265625 -51.59375 11.796875 -53.75 C 14.335938 -55.914062 16.238281 -58.410156 17.5 -61.234375 L 22.296875 -61.234375 L 22.296875 -49.859375 L 33.109375 -49.859375 L 33.109375 -44.6875 L 22.296875 -44.6875 L 22.296875 -15.796875 C 22.296875 -11.910156 22.71875 -9.148438 23.5625 -7.515625 C 24.40625 -5.890625 25.832031 -5.078125 27.84375 -5.078125 C 30.289062 -5.078125 32.140625 -6.207031 33.390625 -8.46875 L 35.375 -5.734375 C 33.613281 -1.285156 29.472656 0.9375 22.953125 0.9375 C 18.628906 0.9375 15.257812 -0.0625 12.84375 -2.0625 C 10.425781 -4.070312 9.21875 -6.894531 9.21875 -10.53125 L 9.21875 -44.6875 Z M 2.359375 -44.6875 "/></g></g></g><g fill="#3b3b3b" fill-opacity="1"><g transform="translate(62.563108, 209.963278)"><g><path d="M 22.953125 -15.421875 C 22.953125 -12.847656 23.03125 -10.828125 23.1875 -9.359375 C 23.34375 -7.890625 23.6875 -6.742188 24.21875 -5.921875 C 24.75 -5.109375 25.5625 -4.578125 26.65625 -4.328125 C 27.757812 -4.078125 29.253906 -3.890625 31.140625 -3.765625 L 31.140625 0 L 1.5 0 L 1.5 -3.765625 C 3.382812 -3.890625 4.890625 -4.078125 6.015625 -4.328125 C 7.148438 -4.578125 8 -5.078125 8.5625 -5.828125 C 9.125 -6.578125 9.484375 -7.65625 9.640625 -9.0625 C 9.796875 -10.476562 9.875 -12.378906 9.875 -14.765625 L 9.875 -53.421875 C 9.875 -57.191406 9.828125 -60.15625 9.734375 -62.3125 C 9.640625 -64.476562 9.46875 -66.125 9.21875 -67.25 C 9.03125 -68.070312 8.8125 -68.71875 8.5625 -69.1875 C 8.3125 -69.65625 7.914062 -70.03125 7.375 -70.3125 C 6.84375 -70.59375 6.125 -70.78125 5.21875 -70.875 C 4.3125 -70.96875 3.164062 -71.015625 1.78125 -71.015625 L 1.78125 -74.5 L 22.765625 -78.078125 L 22.765625 -43.359375 L 23.140625 -43.359375 C 25.085938 -45.929688 27.265625 -47.8125 29.671875 -49 C 32.085938 -50.195312 34.988281 -50.796875 38.375 -50.796875 C 44.519531 -50.796875 49.285156 -48.914062 52.671875 -45.15625 C 54.304688 -43.269531 55.59375 -40.992188 56.53125 -38.328125 C 57.46875 -35.660156 57.9375 -32.882812 57.9375 -30 L 57.9375 -15.421875 C 57.9375 -12.785156 58 -10.734375 58.125 -9.265625 C 58.25 -7.796875 58.578125 -6.664062 59.109375 -5.875 C 59.648438 -5.09375 60.453125 -4.578125 61.515625 -4.328125 C 62.578125 -4.078125 64.050781 -3.890625 65.9375 -3.765625 L 65.9375 0 L 36.5 0 L 36.5 -3.765625 C 38.375 -3.828125 39.859375 -4 40.953125 -4.28125 C 42.054688 -4.5625 42.90625 -5.078125 43.5 -5.828125 C 44.09375 -6.578125 44.46875 -7.65625 44.625 -9.0625 C 44.789062 -10.476562 44.875 -12.378906 44.875 -14.765625 L 44.875 -26.34375 C 44.875 -32.988281 44.148438 -37.6875 42.703125 -40.4375 C 41.265625 -43.195312 38.789062 -44.578125 35.28125 -44.578125 C 31.507812 -44.578125 28.53125 -43.203125 26.34375 -40.453125 C 25.269531 -39.003906 24.4375 -37.210938 23.84375 -35.078125 C 23.25 -32.953125 22.953125 -30.570312 22.953125 -27.9375 Z M 22.953125 -15.421875 "/></g></g></g><g fill="#3b3b3b" fill-opacity="1"><g transform="translate(129.718156, 209.963278)"><g><path d="M 32.359375 -26.8125 C 27.085938 -24.425781 23.117188 -22.210938 20.453125 -20.171875 C 17.796875 -18.140625 16.46875 -16.023438 16.46875 -13.828125 C 16.46875 -12.003906 16.96875 -10.5625 17.96875 -9.5 C 18.96875 -8.4375 20.222656 -7.90625 21.734375 -7.90625 C 23.234375 -7.90625 24.640625 -8.171875 25.953125 -8.703125 C 27.273438 -9.234375 28.40625 -9.9375 29.34375 -10.8125 C 30.289062 -11.695312 31.03125 -12.75 31.5625 -13.96875 C 32.09375 -15.1875 32.359375 -16.488281 32.359375 -17.875 Z M 32.359375 -31.796875 L 32.359375 -35.75 C 32.359375 -39.382812 31.710938 -42.03125 30.421875 -43.6875 C 29.140625 -45.351562 27.148438 -46.1875 24.453125 -46.1875 C 22.640625 -46.1875 21.257812 -45.695312 20.3125 -44.71875 C 19.375 -43.75 18.5 -42.132812 17.6875 -39.875 C 17.125 -38.3125 16.320312 -37.085938 15.28125 -36.203125 C 14.25 -35.328125 12.820312 -34.890625 11 -34.890625 C 9.25 -34.890625 7.898438 -35.421875 6.953125 -36.484375 C 6.015625 -37.554688 5.546875 -39.066406 5.546875 -41.015625 C 5.546875 -44.023438 7.191406 -46.40625 10.484375 -48.15625 C 13.773438 -49.914062 18.742188 -50.796875 25.390625 -50.796875 C 32.421875 -50.796875 37.441406 -49.523438 40.453125 -46.984375 C 43.460938 -44.441406 44.96875 -40.191406 44.96875 -34.234375 L 44.96875 -13.640625 C 44.96875 -8.304688 46.03125 -5.640625 48.15625 -5.640625 C 49.351562 -5.640625 50.453125 -6.046875 51.453125 -6.859375 L 52.859375 -4.140625 C 51.984375 -2.566406 50.617188 -1.328125 48.765625 -0.421875 C 46.921875 0.484375 44.835938 0.9375 42.515625 0.9375 C 39.628906 0.9375 37.429688 0.0625 35.921875 -1.6875 C 34.421875 -3.445312 33.671875 -5.925781 33.671875 -9.125 L 33.203125 -9.125 C 31.378906 -5.863281 29.023438 -3.382812 26.140625 -1.6875 C 23.265625 0 19.972656 0.84375 16.265625 0.84375 C 12.316406 0.84375 9.148438 -0.265625 6.765625 -2.484375 C 4.390625 -4.710938 3.203125 -7.613281 3.203125 -11.1875 C 3.203125 -13.945312 4.421875 -16.535156 6.859375 -18.953125 C 9.304688 -21.367188 13.382812 -23.738281 19.09375 -26.0625 Z M 32.359375 -31.796875 "/></g></g></g><g fill="#3b3b3b" fill-opacity="1"><g transform="translate(183.705553, 209.963278)"><g><path d="M 2.359375 -44.6875 L 2.359375 -48.90625 C 6.117188 -49.976562 9.265625 -51.59375 11.796875 -53.75 C 14.335938 -55.914062 16.238281 -58.410156 17.5 -61.234375 L 22.296875 -61.234375 L 22.296875 -49.859375 L 33.109375 -49.859375 L 33.109375 -44.6875 L 22.296875 -44.6875 L 22.296875 -15.796875 C 22.296875 -11.910156 22.71875 -9.148438 23.5625 -7.515625 C 24.40625 -5.890625 25.832031 -5.078125 27.84375 -5.078125 C 30.289062 -5.078125 32.140625 -6.207031 33.390625 -8.46875 L 35.375 -5.734375 C 33.613281 -1.285156 29.472656 0.9375 22.953125 0.9375 C 18.628906 0.9375 15.257812 -0.0625 12.84375 -2.0625 C 10.425781 -4.070312 9.21875 -6.894531 9.21875 -10.53125 L 9.21875 -44.6875 Z M 2.359375 -44.6875 "/></g></g></g><g fill="#3b3b3b" fill-opacity="1"><g transform="translate(219.634459, 209.963278)"><g><path d="M 29.4375 0.9375 L 22.390625 0.9375 L 9.5 -37.71875 C 8.5 -40.726562 7.335938 -42.84375 6.015625 -44.0625 C 4.703125 -45.289062 2.945312 -45.96875 0.75 -46.09375 L 0.75 -49.859375 L 27.65625 -49.859375 L 27.65625 -46.09375 C 25.394531 -46.03125 23.828125 -45.695312 22.953125 -45.09375 C 22.078125 -44.5 21.640625 -43.484375 21.640625 -42.046875 C 21.640625 -41.359375 21.734375 -40.601562 21.921875 -39.78125 C 22.109375 -38.96875 22.359375 -38.03125 22.671875 -36.96875 L 28.59375 -14.953125 L 28.96875 -14.953125 L 42.140625 -49.859375 L 49.859375 -49.859375 L 59.734375 -14.953125 L 60.203125 -14.953125 L 67.71875 -34.421875 C 68.351562 -35.992188 68.796875 -37.359375 69.046875 -38.515625 C 69.296875 -39.679688 69.421875 -40.703125 69.421875 -41.578125 C 69.421875 -43.203125 68.882812 -44.359375 67.8125 -45.046875 C 66.75 -45.742188 65.3125 -46.09375 63.5 -46.09375 L 63.5 -49.859375 L 83.71875 -49.859375 L 83.71875 -46.09375 C 82.582031 -46.09375 81.640625 -45.96875 80.890625 -45.71875 C 80.140625 -45.46875 79.382812 -44.867188 78.625 -43.921875 C 77.875 -42.984375 77.0625 -41.539062 76.1875 -39.59375 C 75.3125 -37.65625 74.21875 -34.992188 72.90625 -31.609375 L 59.921875 0.9375 L 52.484375 0.9375 L 42.515625 -32.453125 L 42.140625 -32.453125 Z M 29.4375 0.9375 "/></g></g></g><g fill="#3b3b3b" fill-opacity="1"><g transform="translate(303.437181, 209.963278)"><g><path d="M 30.859375 -50.796875 C 34.617188 -50.796875 38.175781 -50.148438 41.53125 -48.859375 C 44.882812 -47.578125 47.832031 -45.804688 50.375 -43.546875 C 52.914062 -41.296875 54.921875 -38.617188 56.390625 -35.515625 C 57.859375 -32.410156 58.59375 -29.003906 58.59375 -25.296875 C 58.59375 -21.472656 57.859375 -17.960938 56.390625 -14.765625 C 54.921875 -11.566406 52.914062 -8.804688 50.375 -6.484375 C 47.832031 -4.171875 44.882812 -2.351562 41.53125 -1.03125 C 38.175781 0.28125 34.617188 0.9375 30.859375 0.9375 C 27.148438 0.9375 23.632812 0.296875 20.3125 -0.984375 C 16.988281 -2.273438 14.070312 -4.078125 11.5625 -6.390625 C 9.0625 -8.710938 7.085938 -11.488281 5.640625 -14.71875 C 4.203125 -17.945312 3.484375 -21.472656 3.484375 -25.296875 C 3.484375 -29.003906 4.203125 -32.425781 5.640625 -35.5625 C 7.085938 -38.695312 9.0625 -41.390625 11.5625 -43.640625 C 14.070312 -45.898438 16.988281 -47.65625 20.3125 -48.90625 C 23.632812 -50.164062 27.148438 -50.796875 30.859375 -50.796875 Z M 30.859375 -45.34375 C 28.972656 -45.34375 27.242188 -44.851562 25.671875 -43.875 C 24.109375 -42.90625 22.773438 -41.539062 21.671875 -39.78125 C 20.578125 -38.03125 19.734375 -35.914062 19.140625 -33.4375 C 18.546875 -30.957031 18.25 -28.210938 18.25 -25.203125 C 18.25 -22.066406 18.546875 -19.242188 19.140625 -16.734375 C 19.734375 -14.234375 20.578125 -12.101562 21.671875 -10.34375 C 22.773438 -8.59375 24.09375 -7.226562 25.625 -6.25 C 27.164062 -5.28125 28.910156 -4.796875 30.859375 -4.796875 C 32.796875 -4.796875 34.5625 -5.28125 36.15625 -6.25 C 37.757812 -7.226562 39.125 -8.609375 40.25 -10.390625 C 41.382812 -12.179688 42.265625 -14.328125 42.890625 -16.828125 C 43.515625 -19.335938 43.828125 -22.128906 43.828125 -25.203125 C 43.828125 -28.210938 43.515625 -30.941406 42.890625 -33.390625 C 42.265625 -35.835938 41.382812 -37.953125 40.25 -39.734375 C 39.125 -41.523438 37.757812 -42.90625 36.15625 -43.875 C 34.5625 -44.851562 32.796875 -45.34375 30.859375 -45.34375 Z M 30.859375 -45.34375 "/></g></g></g><g fill="#3b3b3b" fill-opacity="1"><g transform="translate(365.513295, 209.963278)"><g><path d="M 24.265625 -14.578125 C 24.265625 -12.128906 24.375 -10.195312 24.59375 -8.78125 C 24.8125 -7.375 25.265625 -6.296875 25.953125 -5.546875 C 26.648438 -4.796875 27.65625 -4.3125 28.96875 -4.09375 C 30.289062 -3.875 32.046875 -3.765625 34.234375 -3.765625 L 34.234375 0 L 2.828125 0 L 2.828125 -3.765625 C 4.703125 -3.890625 6.203125 -4.078125 7.328125 -4.328125 C 8.460938 -4.578125 9.3125 -5.078125 9.875 -5.828125 C 10.4375 -6.578125 10.796875 -7.65625 10.953125 -9.0625 C 11.109375 -10.476562 11.1875 -12.378906 11.1875 -14.765625 L 11.1875 -26.25 C 11.1875 -30.132812 11.09375 -33.234375 10.90625 -35.546875 C 10.71875 -37.867188 10.3125 -39.65625 9.6875 -40.90625 C 9.0625 -42.164062 8.164062 -43 7 -43.40625 C 5.84375 -43.8125 4.328125 -44.015625 2.453125 -44.015625 L 2.453125 -47.3125 L 21.265625 -50.796875 L 22.765625 -39.984375 L 23.140625 -39.984375 C 24.828125 -43.304688 27.050781 -45.9375 29.8125 -47.875 C 32.570312 -49.820312 35.488281 -50.796875 38.5625 -50.796875 C 40.945312 -50.796875 42.890625 -50.195312 44.390625 -49 C 45.898438 -47.8125 46.65625 -46.304688 46.65625 -44.484375 C 46.65625 -42.484375 46.070312 -40.789062 44.90625 -39.40625 C 43.75 -38.03125 42.171875 -37.34375 40.171875 -37.34375 C 39.222656 -37.34375 38.375 -37.53125 37.625 -37.90625 C 36.875 -38.28125 36.195312 -38.703125 35.59375 -39.171875 C 35 -39.640625 34.40625 -40.078125 33.8125 -40.484375 C 33.21875 -40.898438 32.609375 -41.109375 31.984375 -41.109375 C 30.785156 -41.109375 29.65625 -40.320312 28.59375 -38.75 C 27.53125 -37.1875 26.65625 -35.085938 25.96875 -32.453125 C 25.457031 -30.566406 25.046875 -28.445312 24.734375 -26.09375 C 24.421875 -23.75 24.265625 -21.414062 24.265625 -19.09375 Z M 24.265625 -14.578125 "/></g></g></g><g fill="#3b3b3b" fill-opacity="1"><g transform="translate(412.352541, 209.963278)"><g><path d="M 33.671875 -3.765625 C 35.679688 -3.765625 37.09375 -3.84375 37.90625 -4 C 38.71875 -4.15625 39.125 -4.484375 39.125 -4.984375 C 39.125 -5.359375 38.703125 -6.28125 37.859375 -7.75 C 37.015625 -9.226562 35.929688 -10.941406 34.609375 -12.890625 L 27.46875 -23.609375 L 22.765625 -19.09375 L 22.765625 -15.421875 C 22.765625 -12.984375 22.859375 -11.007812 23.046875 -9.5 C 23.234375 -8 23.5625 -6.820312 24.03125 -5.96875 C 24.5 -5.125 25.15625 -4.546875 26 -4.234375 C 26.851562 -3.921875 27.9375 -3.765625 29.25 -3.765625 L 29.25 0 L 1.5 0 L 1.5 -3.765625 C 3.257812 -3.828125 4.671875 -4.015625 5.734375 -4.328125 C 6.804688 -4.640625 7.65625 -5.1875 8.28125 -5.96875 C 8.90625 -6.757812 9.328125 -7.859375 9.546875 -9.265625 C 9.765625 -10.671875 9.875 -12.503906 9.875 -14.765625 L 9.875 -54.65625 C 9.875 -58.476562 9.8125 -61.484375 9.6875 -63.671875 C 9.5625 -65.867188 9.234375 -67.515625 8.703125 -68.609375 C 8.171875 -69.710938 7.351562 -70.390625 6.25 -70.640625 C 5.15625 -70.890625 3.664062 -71.015625 1.78125 -71.015625 L 1.78125 -74.5 L 22.765625 -78.078125 L 22.765625 -25.765625 L 31.796875 -34.328125 C 35.054688 -37.398438 37.375 -39.703125 38.75 -41.234375 C 40.132812 -42.773438 40.828125 -43.890625 40.828125 -44.578125 C 40.828125 -45.148438 40.242188 -45.546875 39.078125 -45.765625 C 37.921875 -45.984375 35.773438 -46.09375 32.640625 -46.09375 L 32.640625 -49.859375 L 58.3125 -49.859375 L 58.3125 -46.09375 C 55.9375 -46.09375 53.835938 -45.679688 52.015625 -44.859375 C 50.191406 -44.046875 48.21875 -42.640625 46.09375 -40.640625 L 36.96875 -32.078125 L 53.234375 -9.03125 C 54.679688 -7.019531 56.09375 -5.640625 57.46875 -4.890625 C 58.851562 -4.140625 60.671875 -3.765625 62.921875 -3.765625 L 62.921875 0 L 33.671875 0 Z M 33.671875 -3.765625 "/></g></g></g><g fill="#3b3b3b" fill-opacity="1"><g transform="translate(474.804822, 209.963278)"><g><path d="M 38.1875 -38 C 39.507812 -39.695312 40.390625 -40.890625 40.828125 -41.578125 C 41.265625 -42.265625 41.484375 -42.953125 41.484375 -43.640625 C 41.484375 -44.523438 41.117188 -45.15625 40.390625 -45.53125 C 39.671875 -45.90625 38.46875 -46.09375 36.78125 -46.09375 L 36.78125 -49.859375 L 58.40625 -49.859375 L 58.40625 -46.09375 C 57.21875 -46.03125 56.148438 -45.90625 55.203125 -45.71875 C 54.265625 -45.53125 53.328125 -45.164062 52.390625 -44.625 C 51.453125 -44.09375 50.476562 -43.359375 49.46875 -42.421875 C 48.46875 -41.484375 47.3125 -40.257812 46 -38.75 L 36.40625 -27.65625 L 51.265625 -8.5625 C 52.703125 -6.675781 54.109375 -5.40625 55.484375 -4.75 C 56.867188 -4.09375 58.597656 -3.765625 60.671875 -3.765625 L 60.671875 0 L 30.765625 0 L 30.765625 -3.765625 C 32.578125 -3.765625 33.84375 -3.921875 34.5625 -4.234375 C 35.289062 -4.546875 35.65625 -5.140625 35.65625 -6.015625 C 35.65625 -6.710938 35.429688 -7.453125 34.984375 -8.234375 C 34.546875 -9.015625 33.890625 -10.03125 33.015625 -11.28125 L 27.5625 -18.8125 L 23.421875 -13.828125 C 22.359375 -12.515625 21.507812 -11.445312 20.875 -10.625 C 20.25 -9.8125 19.78125 -9.15625 19.46875 -8.65625 C 19.15625 -8.15625 18.953125 -7.765625 18.859375 -7.484375 C 18.765625 -7.203125 18.71875 -6.929688 18.71875 -6.671875 C 18.71875 -5.609375 19.171875 -4.859375 20.078125 -4.421875 C 20.992188 -3.984375 22.453125 -3.765625 24.453125 -3.765625 L 24.453125 0 L 0.84375 0 L 0.84375 -3.765625 C 2.851562 -3.765625 4.796875 -4.0625 6.671875 -4.65625 C 8.554688 -5.25 10.03125 -6.175781 11.09375 -7.4375 L 24.171875 -22.765625 L 8.46875 -42.703125 C 7.269531 -44.210938 6.21875 -45.15625 5.3125 -45.53125 C 4.40625 -45.90625 3.164062 -46.09375 1.59375 -46.09375 L 1.59375 -49.859375 L 30.28125 -49.859375 L 30.28125 -46.09375 C 27.082031 -46.09375 25.484375 -45.210938 25.484375 -43.453125 C 25.484375 -42.828125 25.832031 -42.015625 26.53125 -41.015625 L 33.203125 -31.609375 Z M 38.1875 -38 "/></g></g></g><g fill="#3b3b3b" fill-opacity="1"><g transform="translate(535.752252, 209.963278)"><g><path d="M 5.078125 -6.015625 C 5.078125 -8.023438 5.75 -9.734375 7.09375 -11.140625 C 8.445312 -12.554688 10.128906 -13.265625 12.140625 -13.265625 C 14.203125 -13.265625 15.921875 -12.554688 17.296875 -11.140625 C 18.679688 -9.734375 19.375 -8.023438 19.375 -6.015625 C 19.375 -4.078125 18.679688 -2.429688 17.296875 -1.078125 C 15.921875 0.265625 14.203125 0.9375 12.140625 0.9375 C 10.128906 0.9375 8.445312 0.265625 7.09375 -1.078125 C 5.75 -2.429688 5.078125 -4.078125 5.078125 -6.015625 Z M 5.078125 -6.015625 "/></g></g></g><g fill="#3b3b3b" fill-opacity="1"><g transform="translate(590.709004, 205.624966)"><g><path d="M 2.671875 -12.625 L 4.609375 -12.625 C 5.066406 -9.488281 6.316406 -7.019531 8.359375 -5.21875 C 10.410156 -3.425781 12.9375 -2.53125 15.9375 -2.53125 C 17.164062 -2.53125 18.289062 -2.675781 19.3125 -2.96875 C 20.332031 -3.269531 21.207031 -3.691406 21.9375 -4.234375 C 22.664062 -4.773438 23.226562 -5.414062 23.625 -6.15625 C 24.019531 -6.90625 24.21875 -7.742188 24.21875 -8.671875 C 24.21875 -9.460938 24.09375 -10.144531 23.84375 -10.71875 C 23.59375 -11.300781 23.117188 -11.863281 22.421875 -12.40625 C 21.734375 -12.945312 20.785156 -13.5 19.578125 -14.0625 C 18.378906 -14.625 16.820312 -15.269531 14.90625 -16 C 11.039062 -17.476562 8.179688 -19.195312 6.328125 -21.15625 C 4.484375 -23.125 3.5625 -25.445312 3.5625 -28.125 C 3.5625 -29.675781 3.859375 -31.09375 4.453125 -32.375 C 5.046875 -33.664062 5.878906 -34.773438 6.953125 -35.703125 C 8.023438 -36.628906 9.3125 -37.347656 10.8125 -37.859375 C 12.320312 -38.367188 13.984375 -38.625 15.796875 -38.625 C 17.484375 -38.625 19.066406 -38.359375 20.546875 -37.828125 C 22.035156 -37.296875 23.503906 -36.503906 24.953125 -35.453125 L 25.84375 -37.921875 L 27.03125 -37.921875 L 27.578125 -27.234375 L 25.65625 -27.234375 C 24.851562 -29.941406 23.609375 -32.015625 21.921875 -33.453125 C 20.242188 -34.890625 18.300781 -35.609375 16.09375 -35.609375 C 14.039062 -35.609375 12.378906 -35.101562 11.109375 -34.09375 C 9.835938 -33.082031 9.203125 -31.785156 9.203125 -30.203125 C 9.203125 -29.515625 9.316406 -28.894531 9.546875 -28.34375 C 9.785156 -27.800781 10.21875 -27.28125 10.84375 -26.78125 C 11.46875 -26.289062 12.320312 -25.789062 13.40625 -25.28125 C 14.5 -24.769531 15.90625 -24.195312 17.625 -23.5625 C 19.9375 -22.675781 21.910156 -21.78125 23.546875 -20.875 C 25.179688 -19.96875 26.515625 -18.992188 27.546875 -17.953125 C 28.585938 -16.910156 29.351562 -15.8125 29.84375 -14.65625 C 30.34375 -13.5 30.59375 -12.226562 30.59375 -10.84375 C 30.59375 -9.15625 30.226562 -7.617188 29.5 -6.234375 C 28.78125 -4.847656 27.769531 -3.660156 26.46875 -2.671875 C 25.164062 -1.679688 23.613281 -0.90625 21.8125 -0.34375 C 20.007812 0.21875 18.019531 0.5 15.84375 0.5 C 13.863281 0.5 12.082031 0.226562 10.5 -0.3125 C 8.914062 -0.863281 7.28125 -1.75 5.59375 -2.96875 L 4.609375 0 L 3.421875 0 Z M 2.671875 -12.625 "/></g></g></g><g fill="#3b3b3b" fill-opacity="1"><g transform="translate(643.344636, 205.624966)"><g><path d="M 23.375 -38.625 C 26.34375 -38.625 29.113281 -38.109375 31.6875 -37.078125 C 34.257812 -36.054688 36.492188 -34.65625 38.390625 -32.875 C 40.296875 -31.09375 41.789062 -28.992188 42.875 -26.578125 C 43.96875 -24.171875 44.515625 -21.566406 44.515625 -18.765625 C 44.515625 -16.085938 43.960938 -13.578125 42.859375 -11.234375 C 41.753906 -8.890625 40.25 -6.851562 38.34375 -5.125 C 36.445312 -3.394531 34.210938 -2.023438 31.640625 -1.015625 C 29.066406 -0.00390625 26.3125 0.5 23.375 0.5 C 20.4375 0.5 17.675781 -0.00390625 15.09375 -1.015625 C 12.519531 -2.023438 10.273438 -3.394531 8.359375 -5.125 C 6.453125 -6.851562 4.953125 -8.890625 3.859375 -11.234375 C 2.773438 -13.578125 2.234375 -16.085938 2.234375 -18.765625 C 2.234375 -21.566406 2.773438 -24.171875 3.859375 -26.578125 C 4.953125 -28.992188 6.445312 -31.09375 8.34375 -32.875 C 10.238281 -34.65625 12.472656 -36.054688 15.046875 -37.078125 C 17.628906 -38.109375 20.40625 -38.625 23.375 -38.625 Z M 23.375 -2.71875 C 25.289062 -2.71875 27.019531 -3.085938 28.5625 -3.828125 C 30.113281 -4.578125 31.4375 -5.632812 32.53125 -7 C 33.625 -8.375 34.457031 -10.039062 35.03125 -12 C 35.613281 -13.96875 35.90625 -16.175781 35.90625 -18.625 C 35.90625 -21.195312 35.613281 -23.515625 35.03125 -25.578125 C 34.457031 -27.640625 33.625 -29.40625 32.53125 -30.875 C 31.4375 -32.34375 30.113281 -33.460938 28.5625 -34.234375 C 27.019531 -35.015625 25.289062 -35.40625 23.375 -35.40625 C 21.425781 -35.40625 19.679688 -35.015625 18.140625 -34.234375 C 16.609375 -33.460938 15.296875 -32.34375 14.203125 -30.875 C 13.117188 -29.40625 12.285156 -27.640625 11.703125 -25.578125 C 11.128906 -23.515625 10.84375 -21.195312 10.84375 -18.625 C 10.84375 -16.175781 11.128906 -13.96875 11.703125 -12 C 12.285156 -10.039062 13.117188 -8.375 14.203125 -7 C 15.296875 -5.632812 16.609375 -4.578125 18.140625 -3.828125 C 19.679688 -3.085938 21.425781 -2.71875 23.375 -2.71875 Z M 23.375 -2.71875 "/></g></g></g><g fill="#3b3b3b" fill-opacity="1"><g transform="translate(709.843571, 205.624966)"><g><path d="M 35.84375 0 L 1.734375 0 L 1.734375 -1.984375 C 2.816406 -2.015625 3.707031 -2.113281 4.40625 -2.28125 C 5.101562 -2.445312 5.628906 -2.726562 5.984375 -3.125 C 6.347656 -3.519531 6.597656 -4.078125 6.734375 -4.796875 C 6.867188 -5.523438 6.9375 -6.46875 6.9375 -7.625 L 6.9375 -30.5 C 6.9375 -31.65625 6.875 -32.585938 6.75 -33.296875 C 6.632812 -34.003906 6.410156 -34.566406 6.078125 -34.984375 C 5.753906 -35.398438 5.285156 -35.679688 4.671875 -35.828125 C 4.066406 -35.972656 3.269531 -36.078125 2.28125 -36.140625 L 2.28125 -38.125 L 19.359375 -38.125 L 19.359375 -36.140625 C 18.234375 -36.109375 17.332031 -36.007812 16.65625 -35.84375 C 15.976562 -35.6875 15.457031 -35.390625 15.09375 -34.953125 C 14.738281 -34.523438 14.503906 -33.929688 14.390625 -33.171875 C 14.273438 -32.410156 14.21875 -31.40625 14.21875 -30.15625 L 14.21875 -9.40625 C 14.21875 -8.019531 14.351562 -6.890625 14.625 -6.015625 C 14.90625 -5.140625 15.390625 -4.460938 16.078125 -3.984375 C 16.773438 -3.503906 17.703125 -3.171875 18.859375 -2.984375 C 20.015625 -2.804688 21.453125 -2.71875 23.171875 -2.71875 C 25.085938 -2.71875 26.6875 -2.832031 27.96875 -3.0625 C 29.257812 -3.300781 30.34375 -3.738281 31.21875 -4.375 C 32.09375 -5.019531 32.789062 -5.882812 33.3125 -6.96875 C 33.84375 -8.0625 34.289062 -9.484375 34.65625 -11.234375 L 36.640625 -11.234375 Z M 35.84375 0 "/></g></g></g><g fill="#3b3b3b" fill-opacity="1"><g transform="translate(767.034295, 205.624966)"><g><path d="M 37.484375 -15.34375 C 37.484375 -12.539062 37.175781 -10.140625 36.5625 -8.140625 C 35.957031 -6.148438 35.007812 -4.507812 33.71875 -3.21875 C 32.4375 -1.925781 30.78125 -0.984375 28.75 -0.390625 C 26.71875 0.203125 24.28125 0.5 21.4375 0.5 C 16.125 0.5 12.238281 -0.613281 9.78125 -2.84375 C 7.320312 -5.070312 6.09375 -8.628906 6.09375 -13.515625 L 6.09375 -27.078125 C 6.09375 -28.367188 6.070312 -29.453125 6.03125 -30.328125 C 6 -31.203125 5.953125 -31.9375 5.890625 -32.53125 C 5.828125 -33.125 5.738281 -33.609375 5.625 -33.984375 C 5.507812 -34.367188 5.367188 -34.691406 5.203125 -34.953125 C 4.898438 -35.421875 4.46875 -35.734375 3.90625 -35.890625 C 3.34375 -36.054688 2.488281 -36.140625 1.34375 -36.140625 L 1.34375 -38.125 L 19.109375 -38.125 L 19.109375 -36.140625 C 17.722656 -36.140625 16.695312 -36.066406 16.03125 -35.921875 C 15.375 -35.773438 14.867188 -35.488281 14.515625 -35.0625 C 14.273438 -34.789062 14.082031 -34.460938 13.9375 -34.078125 C 13.789062 -33.703125 13.675781 -33.207031 13.59375 -32.59375 C 13.507812 -31.988281 13.453125 -31.238281 13.421875 -30.34375 C 13.390625 -29.457031 13.375 -28.367188 13.375 -27.078125 L 13.375 -14.109375 C 13.375 -10.347656 14.171875 -7.566406 15.765625 -5.765625 C 17.367188 -3.960938 19.835938 -3.0625 23.171875 -3.0625 C 29.972656 -3.0625 33.375 -6.84375 33.375 -14.40625 L 33.375 -25.84375 C 33.375 -27.226562 33.347656 -28.414062 33.296875 -29.40625 C 33.242188 -30.394531 33.160156 -31.238281 33.046875 -31.9375 C 32.929688 -32.632812 32.78125 -33.210938 32.59375 -33.671875 C 32.414062 -34.128906 32.195312 -34.507812 31.9375 -34.8125 C 31.476562 -35.269531 30.882812 -35.601562 30.15625 -35.8125 C 29.425781 -36.03125 28.421875 -36.140625 27.140625 -36.140625 L 27.140625 -38.125 L 43.171875 -38.125 L 43.171875 -36.140625 C 41.953125 -36.140625 41.007812 -36.050781 40.34375 -35.875 C 39.6875 -35.695312 39.179688 -35.375 38.828125 -34.90625 C 38.554688 -34.613281 38.335938 -34.226562 38.171875 -33.75 C 38.003906 -33.269531 37.867188 -32.671875 37.765625 -31.953125 C 37.671875 -31.242188 37.597656 -30.394531 37.546875 -29.40625 C 37.503906 -28.414062 37.484375 -27.226562 37.484375 -25.84375 Z M 37.484375 -15.34375 "/></g></g></g><g fill="#3b3b3b" fill-opacity="1"><g transform="translate(830.414006, 205.624966)"><g><path d="M 40.359375 -27.234375 L 38.21875 -27.234375 C 38.125 -28.847656 37.882812 -30.191406 37.5 -31.265625 C 37.125 -32.335938 36.585938 -33.195312 35.890625 -33.84375 C 35.203125 -34.488281 34.363281 -34.929688 33.375 -35.171875 C 32.382812 -35.421875 31.226562 -35.546875 29.90625 -35.546875 C 28.613281 -35.546875 27.582031 -35.519531 26.8125 -35.46875 C 26.039062 -35.425781 25.445312 -35.347656 25.03125 -35.234375 C 24.613281 -35.117188 24.335938 -34.960938 24.203125 -34.765625 C 24.078125 -34.566406 24.015625 -34.316406 24.015625 -34.015625 L 24.015625 -8.078125 C 24.015625 -7.015625 24.085938 -6.101562 24.234375 -5.34375 C 24.378906 -4.582031 24.679688 -3.960938 25.140625 -3.484375 C 25.609375 -3.003906 26.285156 -2.640625 27.171875 -2.390625 C 28.066406 -2.148438 29.242188 -2.015625 30.703125 -1.984375 L 30.703125 0 L 9.953125 0 L 9.953125 -1.984375 C 11.441406 -2.015625 12.628906 -2.148438 13.515625 -2.390625 C 14.410156 -2.640625 15.097656 -3.003906 15.578125 -3.484375 C 16.054688 -3.960938 16.367188 -4.582031 16.515625 -5.34375 C 16.660156 -6.101562 16.734375 -7.015625 16.734375 -8.078125 L 16.734375 -34.015625 C 16.734375 -34.316406 16.675781 -34.566406 16.5625 -34.765625 C 16.445312 -34.960938 16.207031 -35.117188 15.84375 -35.234375 C 15.476562 -35.347656 14.957031 -35.425781 14.28125 -35.46875 C 13.601562 -35.519531 12.722656 -35.546875 11.640625 -35.546875 C 10.453125 -35.546875 9.3125 -35.488281 8.21875 -35.375 C 7.125 -35.257812 6.164062 -34.929688 5.34375 -34.390625 C 4.519531 -33.847656 3.851562 -33.019531 3.34375 -31.90625 C 2.832031 -30.800781 2.5625 -29.242188 2.53125 -27.234375 L 0.59375 -27.234375 L 1.09375 -38.125 L 39.859375 -38.125 Z M 40.359375 -27.234375 "/></g></g></g><g fill="#3b3b3b" fill-opacity="1"><g transform="translate(891.169564, 205.624966)"><g><path d="M 19.453125 0 L 1.78125 0 L 1.78125 -1.984375 C 2.90625 -2.015625 3.804688 -2.117188 4.484375 -2.296875 C 5.160156 -2.484375 5.675781 -2.820312 6.03125 -3.3125 C 6.394531 -3.8125 6.644531 -4.515625 6.78125 -5.421875 C 6.914062 -6.328125 6.984375 -7.554688 6.984375 -9.109375 L 6.984375 -29.015625 C 6.984375 -30.398438 6.925781 -31.546875 6.8125 -32.453125 C 6.695312 -33.359375 6.472656 -34.078125 6.140625 -34.609375 C 5.804688 -35.140625 5.332031 -35.507812 4.71875 -35.71875 C 4.113281 -35.9375 3.300781 -36.078125 2.28125 -36.140625 L 2.28125 -38.125 L 18.96875 -38.125 L 18.96875 -36.140625 C 17.9375 -36.078125 17.113281 -35.9375 16.5 -35.71875 C 15.894531 -35.507812 15.425781 -35.140625 15.09375 -34.609375 C 14.769531 -34.078125 14.550781 -33.359375 14.4375 -32.453125 C 14.320312 -31.546875 14.265625 -30.398438 14.265625 -29.015625 L 14.265625 -9.109375 C 14.265625 -7.554688 14.320312 -6.328125 14.4375 -5.421875 C 14.550781 -4.515625 14.796875 -3.8125 15.171875 -3.3125 C 15.554688 -2.820312 16.085938 -2.484375 16.765625 -2.296875 C 17.441406 -2.117188 18.335938 -2.015625 19.453125 -1.984375 Z M 19.453125 0 "/></g></g></g><g fill="#3b3b3b" fill-opacity="1"><g transform="translate(932.21945, 205.624966)"><g><path d="M 23.375 -38.625 C 26.34375 -38.625 29.113281 -38.109375 31.6875 -37.078125 C 34.257812 -36.054688 36.492188 -34.65625 38.390625 -32.875 C 40.296875 -31.09375 41.789062 -28.992188 42.875 -26.578125 C 43.96875 -24.171875 44.515625 -21.566406 44.515625 -18.765625 C 44.515625 -16.085938 43.960938 -13.578125 42.859375 -11.234375 C 41.753906 -8.890625 40.25 -6.851562 38.34375 -5.125 C 36.445312 -3.394531 34.210938 -2.023438 31.640625 -1.015625 C 29.066406 -0.00390625 26.3125 0.5 23.375 0.5 C 20.4375 0.5 17.675781 -0.00390625 15.09375 -1.015625 C 12.519531 -2.023438 10.273438 -3.394531 8.359375 -5.125 C 6.453125 -6.851562 4.953125 -8.890625 3.859375 -11.234375 C 2.773438 -13.578125 2.234375 -16.085938 2.234375 -18.765625 C 2.234375 -21.566406 2.773438 -24.171875 3.859375 -26.578125 C 4.953125 -28.992188 6.445312 -31.09375 8.34375 -32.875 C 10.238281 -34.65625 12.472656 -36.054688 15.046875 -37.078125 C 17.628906 -38.109375 20.40625 -38.625 23.375 -38.625 Z M 23.375 -2.71875 C 25.289062 -2.71875 27.019531 -3.085938 28.5625 -3.828125 C 30.113281 -4.578125 31.4375 -5.632812 32.53125 -7 C 33.625 -8.375 34.457031 -10.039062 35.03125 -12 C 35.613281 -13.96875 35.90625 -16.175781 35.90625 -18.625 C 35.90625 -21.195312 35.613281 -23.515625 35.03125 -25.578125 C 34.457031 -27.640625 33.625 -29.40625 32.53125 -30.875 C 31.4375 -32.34375 30.113281 -33.460938 28.5625 -34.234375 C 27.019531 -35.015625 25.289062 -35.40625 23.375 -35.40625 C 21.425781 -35.40625 19.679688 -35.015625 18.140625 -34.234375 C 16.609375 -33.460938 15.296875 -32.34375 14.203125 -30.875 C 13.117188 -29.40625 12.285156 -27.640625 11.703125 -25.578125 C 11.128906 -23.515625 10.84375 -21.195312 10.84375 -18.625 C 10.84375 -16.175781 11.128906 -13.96875 11.703125 -12 C 12.285156 -10.039062 13.117188 -8.375 14.203125 -7 C 15.296875 -5.632812 16.609375 -4.578125 18.140625 -3.828125 C 19.679688 -3.085938 21.425781 -2.71875 23.375 -2.71875 Z M 23.375 -2.71875 "/></g></g></g><g fill="#3b3b3b" fill-opacity="1"><g transform="translate(998.718362, 205.624966)"><g><path d="M 33.171875 0.5 L 11.234375 -30.75 L 11.046875 -30.75 L 11.046875 -9.453125 C 11.046875 -7.804688 11.101562 -6.503906 11.21875 -5.546875 C 11.332031 -4.585938 11.578125 -3.84375 11.953125 -3.3125 C 12.335938 -2.789062 12.867188 -2.445312 13.546875 -2.28125 C 14.222656 -2.113281 15.101562 -2.015625 16.1875 -1.984375 L 16.1875 0 L 1.484375 0 L 1.484375 -1.984375 C 2.703125 -2.015625 3.679688 -2.117188 4.421875 -2.296875 C 5.171875 -2.484375 5.75 -2.820312 6.15625 -3.3125 C 6.570312 -3.8125 6.847656 -4.515625 6.984375 -5.421875 C 7.117188 -6.328125 7.1875 -7.554688 7.1875 -9.109375 L 7.1875 -29.015625 C 7.1875 -30.398438 7.117188 -31.546875 6.984375 -32.453125 C 6.847656 -33.359375 6.597656 -34.078125 6.234375 -34.609375 C 5.867188 -35.140625 5.347656 -35.507812 4.671875 -35.71875 C 4.003906 -35.9375 3.109375 -36.078125 1.984375 -36.140625 L 1.984375 -38.125 L 15.796875 -38.125 L 35.75 -9.5 L 35.953125 -9.5 L 35.953125 -28.671875 C 35.953125 -30.285156 35.894531 -31.578125 35.78125 -32.546875 C 35.664062 -33.523438 35.414062 -34.28125 35.03125 -34.8125 C 34.65625 -35.34375 34.128906 -35.6875 33.453125 -35.84375 C 32.773438 -36.007812 31.890625 -36.109375 30.796875 -36.140625 L 30.796875 -38.125 L 45.5 -38.125 L 45.5 -36.140625 C 44.28125 -36.109375 43.296875 -36 42.546875 -35.8125 C 41.804688 -35.632812 41.226562 -35.296875 40.8125 -34.796875 C 40.40625 -34.304688 40.132812 -33.597656 40 -32.671875 C 39.875 -31.753906 39.8125 -30.535156 39.8125 -29.015625 L 39.8125 0.5 Z M 33.171875 0.5 "/></g></g></g><g fill="#3b3b3b" fill-opacity="1"><g transform="translate(1065.068776, 205.624966)"><g><path d="M 2.671875 -12.625 L 4.609375 -12.625 C 5.066406 -9.488281 6.316406 -7.019531 8.359375 -5.21875 C 10.410156 -3.425781 12.9375 -2.53125 15.9375 -2.53125 C 17.164062 -2.53125 18.289062 -2.675781 19.3125 -2.96875 C 20.332031 -3.269531 21.207031 -3.691406 21.9375 -4.234375 C 22.664062 -4.773438 23.226562 -5.414062 23.625 -6.15625 C 24.019531 -6.90625 24.21875 -7.742188 24.21875 -8.671875 C 24.21875 -9.460938 24.09375 -10.144531 23.84375 -10.71875 C 23.59375 -11.300781 23.117188 -11.863281 22.421875 -12.40625 C 21.734375 -12.945312 20.785156 -13.5 19.578125 -14.0625 C 18.378906 -14.625 16.820312 -15.269531 14.90625 -16 C 11.039062 -17.476562 8.179688 -19.195312 6.328125 -21.15625 C 4.484375 -23.125 3.5625 -25.445312 3.5625 -28.125 C 3.5625 -29.675781 3.859375 -31.09375 4.453125 -32.375 C 5.046875 -33.664062 5.878906 -34.773438 6.953125 -35.703125 C 8.023438 -36.628906 9.3125 -37.347656 10.8125 -37.859375 C 12.320312 -38.367188 13.984375 -38.625 15.796875 -38.625 C 17.484375 -38.625 19.066406 -38.359375 20.546875 -37.828125 C 22.035156 -37.296875 23.503906 -36.503906 24.953125 -35.453125 L 25.84375 -37.921875 L 27.03125 -37.921875 L 27.578125 -27.234375 L 25.65625 -27.234375 C 24.851562 -29.941406 23.609375 -32.015625 21.921875 -33.453125 C 20.242188 -34.890625 18.300781 -35.609375 16.09375 -35.609375 C 14.039062 -35.609375 12.378906 -35.101562 11.109375 -34.09375 C 9.835938 -33.082031 9.203125 -31.785156 9.203125 -30.203125 C 9.203125 -29.515625 9.316406 -28.894531 9.546875 -28.34375 C 9.785156 -27.800781 10.21875 -27.28125 10.84375 -26.78125 C 11.46875 -26.289062 12.320312 -25.789062 13.40625 -25.28125 C 14.5 -24.769531 15.90625 -24.195312 17.625 -23.5625 C 19.9375 -22.675781 21.910156 -21.78125 23.546875 -20.875 C 25.179688 -19.96875 26.515625 -18.992188 27.546875 -17.953125 C 28.585938 -16.910156 29.351562 -15.8125 29.84375 -14.65625 C 30.34375 -13.5 30.59375 -12.226562 30.59375 -10.84375 C 30.59375 -9.15625 30.226562 -7.617188 29.5 -6.234375 C 28.78125 -4.847656 27.769531 -3.660156 26.46875 -2.671875 C 25.164062 -1.679688 23.613281 -0.90625 21.8125 -0.34375 C 20.007812 0.21875 18.019531 0.5 15.84375 0.5 C 13.863281 0.5 12.082031 0.226562 10.5 -0.3125 C 8.914062 -0.863281 7.28125 -1.75 5.59375 -2.96875 L 4.609375 0 L 3.421875 0 Z M 2.671875 -12.625 "/></g></g></g><path stroke-linecap="round" transform="matrix(-0.00533854, 0.749981, -0.749981, -0.00533854, 579.877127, 128.281852)" fill="none" stroke-linejoin="miter" d="M 4.500109 4.502169 L 135.987799 4.498525 " stroke="#dd0000" stroke-width="9" stroke-opacity="1" stroke-miterlimit="4"/></svg>